<svg id="Capa_1" data-name="Capa 1" xmlns="http://www.w3.org/2000/svg" viewBox="0 0 340.35 396.6"><defs><style>.cls-1{fill:#55734c;}.cls-2{fill:#d43d21;}.cls-3{fill:#f7f1e6;}</style></defs><title>apple</title><g id="Layer_2" data-name="Layer 2"><path class="cls-1" d="M225.67,95.1a179.11,179.11,0,0,1,24.8-7.54A122,122,0,0,0,260,77.39C278,56.55,286,32.55,283.85,6.06A6.58,6.58,0,0,0,277.29,0H274.4a6.24,6.24,0,0,0-.86.06c-22.59,3-47.29,16.13-61.48,32.71-11.48,13.47-26.49,35.3-24.18,69.23,0,.18.06.34.08.52a36,36,0,0,0,9.34,1.44C207.1,103.89,217.42,98.39,225.67,95.1Z" transform="translate(-28.12)"/><path class="cls-2" d="M315.73,99.61C300.45,90.21,279.41,82.2,256,85.71c-1.51.24-3,.54-4.53.85a179.11,179.11,0,0,0-24.8,7.54c-8.25,3.29-18.57,8.79-28.37,8.85a36.09,36.09,0,0,1-9.34-1.44c-6.76-1.87-13.38-5.16-19-7.41-9-3.34-19.27-6.78-29.33-8.4-23.41-3.51-44.45,4.51-59.73,13.9-29.07,17.67-50.8,54.24-52.74,99.1v18.49c4.51,62.7,28.64,111.73,59.82,149.72,10.58,12.81,25.08,27,43.1,29.68h8.39c22.18-3.12,36.4-14.68,58.86-16.52,22.46,1.83,36.68,13.39,58.86,16.52h8.39c18-2.65,32.52-16.87,43.1-29.68,31.19-38,55.32-87,59.82-149.72V198.7C366.53,153.85,344.8,117.27,315.73,99.61ZM290,224.75C286,249,257,276.26,233.68,298.2c0,0-11.64,11.69-15.14,14.68-2.62,2.26-8.33,6.8-14.5,6.8s-11.88-4.54-14.51-6.8c-3.49-3-15.14-14.68-15.14-14.68-23.33-21.95-52.29-49.19-56.27-73.45-2.79-17.15-.07-31.28,8.11-42s20.81-17,38.4-18.9a47.21,47.21,0,0,1,4.78-.25A55.84,55.84,0,0,1,204,176a55.89,55.89,0,0,1,34.65-12.46,47,47,0,0,1,4.76.25c17.59,1.88,30.14,8.07,38.4,18.9S292.74,207.61,290,224.75Z" transform="translate(-28.12)"/><path class="cls-3" d="M243.44,163.83a47,47,0,0,0-4.76-.25A55.89,55.89,0,0,0,204,176a55.84,55.84,0,0,0-34.62-12.46,47.21,47.21,0,0,0-4.78.25c-17.59,1.88-30.15,8.07-38.4,18.9s-10.9,24.87-8.11,42c4,24.26,32.94,51.5,56.27,73.45,0,0,11.64,11.69,15.14,14.68,2.64,2.26,8.33,6.8,14.51,6.8s11.88-4.54,14.5-6.8c3.49-3,15.14-14.68,15.14-14.68C257,276.26,286,249,290,224.75c2.79-17.15.07-31.28-8.11-42S261,165.71,243.44,163.83Z" transform="translate(-28.12)"/></g></svg>