<svg id="Capa_1" data-name="Capa 1" xmlns="http://www.w3.org/2000/svg" viewBox="0 0 56 58"><defs><style>.cls-1{fill:#f05565;}.cls-2{fill:#efebde;}.cls-3{fill:#d5d0bb;}.cls-4{fill:#36495e;}.cls-5{fill:#7f6e5d;}.cls-6{fill:#3d324c;}</style></defs><title>calendar</title><polygon class="cls-1" points="46 4 46 8 39 8 39 4 15 4 15 8 8 8 8 4 0 4 0 15 54 15 54 4 46 4"/><polygon class="cls-2" points="8 15 0 15 0 58 54 58 54 15 46 15 39 15 15 15 8 15"/><path class="cls-3" d="M38,22H9V51H47V22Zm-9,2h7v7H29Zm7,16H29V33h7ZM20,33h7v7H20Zm0-9h7v7H20Zm-9,0h7v7H11Zm0,9h7v7H11Zm7,16H11V42h7Zm9,0H20V42h7Zm9,0H29V42h7Zm9,0H38V42h7Zm0-9H38V33h7Zm-7-9V24h7v7Z" transform="translate(-1)"/><rect class="cls-4" x="8" width="7" height="8"/><rect class="cls-4" x="39" width="7" height="8"/><rect class="cls-5" x="19" y="33" width="7" height="7"/><path class="cls-6" d="M56.71,55.29l-6.8-6.8,6.48-3.24-17.64-6.5,6.5,17.64,3.24-6.48,6.8,6.8a1,1,0,1,0,1.41-1.41Z" transform="translate(-1)"/></svg>