<svg id="Capa_1" data-name="Capa 1" xmlns="http://www.w3.org/2000/svg" viewBox="0 0 512 354.96"><defs><style>.cls-1{fill:#fff;}</style></defs><title>delivery</title><path class="cls-1" d="M386.69,304.4a64.54,64.54,0,1,0,64.54,64.54A64.61,64.61,0,0,0,386.69,304.4Zm0,96.81A32.27,32.27,0,1,1,419,368.94,32.3,32.3,0,0,1,386.69,401.21Z" transform="translate(0 -78.52)"/><path class="cls-1" d="M166.18,304.4a64.54,64.54,0,1,0,64.54,64.54A64.61,64.61,0,0,0,166.18,304.4Zm0,96.81a32.27,32.27,0,1,1,32.27-32.27A32.3,32.3,0,0,1,166.18,401.21Z" transform="translate(0 -78.52)"/><path class="cls-1" d="M430.15,119.68a16.14,16.14,0,0,0-14.42-8.89h-85v32.27h75l43.93,87.38,28.84-14.5Z" transform="translate(0 -78.52)"/><rect class="cls-1" x="216.2" y="274.82" width="122.08" height="32.27"/><path class="cls-1" d="M117.78,353.35H61.85a16.13,16.13,0,0,0,0,32.27h55.93a16.13,16.13,0,1,0,0-32.27Z" transform="translate(0 -78.52)"/><path class="cls-1" d="M508.61,254.71l-31.74-40.87a16.11,16.11,0,0,0-12.74-6.24H346.89V94.65a16.13,16.13,0,0,0-16.13-16.13H61.85a16.13,16.13,0,0,0,0,32.27H314.62V223.73a16.13,16.13,0,0,0,16.13,16.13H456.23l23.5,30.27v83.21H435.09a16.13,16.13,0,1,0,0,32.27h60.77A16.13,16.13,0,0,0,512,369.48V264.61A16.16,16.16,0,0,0,508.61,254.71Z" transform="translate(0 -78.52)"/><path class="cls-1" d="M116.71,271.6H42.49a16.13,16.13,0,0,0,0,32.27h74.22a16.13,16.13,0,0,0,0-32.27Z" transform="translate(0 -78.52)"/><path class="cls-1" d="M153.82,208.13H16.13a16.13,16.13,0,0,0,0,32.27H153.82a16.13,16.13,0,0,0,0-32.27Z" transform="translate(0 -78.52)"/><path class="cls-1" d="M180.17,144.67H42.49a16.13,16.13,0,0,0,0,32.27H180.17a16.13,16.13,0,1,0,0-32.27Z" transform="translate(0 -78.52)"/></svg>