<svg id="Layer_1" data-name="Layer 1" xmlns="http://www.w3.org/2000/svg" viewBox="0 0 512 512"><defs><style>.cls-1{fill:#dc691d;}.cls-2{fill:#f7e6a1;}.cls-3{fill:#c5411e;}.cls-4{fill:#cb465f;}.cls-5{fill:#afb6bb;}.cls-6{fill:#ebba16;}.cls-7{fill:#23a24d;}.cls-8{fill:#426d5f;}.cls-9{fill:#dd352e;}</style></defs><title>pizza</title><path class="cls-1" d="M512,256c0,141.39-114.61,256-256,256S0,397.39,0,256,114.61,0,256,0,512,114.61,512,256Z"/><path class="cls-2" d="M306.25,51.45A63.08,63.08,0,0,0,365.1,75.82a63.06,63.06,0,0,1,71.07,71.07,63.06,63.06,0,0,0,24.37,58.84,63.06,63.06,0,0,1,0,100.51,63.07,63.07,0,0,0-24.37,58.84,63.07,63.07,0,0,1-71.07,71.07,63.06,63.06,0,0,0-58.85,24.37,63.06,63.06,0,0,1-100.51,0,63.07,63.07,0,0,0-58.85-24.37,63.07,63.07,0,0,1-71.07-71.07,63.06,63.06,0,0,0-24.37-58.84,63.06,63.06,0,0,1,0-100.51,63.06,63.06,0,0,0,24.37-58.84A63.06,63.06,0,0,1,146.9,75.82a63.07,63.07,0,0,0,58.85-24.37A63.06,63.06,0,0,1,306.25,51.45Z"/><path class="cls-3" d="M370.76,150.07A8.83,8.83,0,0,1,364.52,135l17.66-17.66a8.83,8.83,0,0,1,12.48,12.48L377,147.48A8.82,8.82,0,0,1,370.76,150.07Z"/><path class="cls-4" d="M390.34,351.18l11.9-11.9a9.15,9.15,0,0,0,0-12.94l-12-12a9.14,9.14,0,0,0-12.94,0L358.63,333a4,4,0,0,0,0,5.74,13.6,13.6,0,0,1,0,19.23L347,369.59a9.14,9.14,0,0,0,0,12.94l12,12a9.15,9.15,0,0,0,12.94,0l18.41-18.41a4.06,4.06,0,0,0,0-5.74A13.58,13.58,0,0,1,390.34,351.18Z"/><path class="cls-5" d="M220.69,132.41c0-14.63-15.81-26.48-35.31-26.48s-35.31,11.86-35.31,26.48c0,7.5,4.2,14.2,10.89,19a16.93,16.93,0,0,1,6.76,13.84v1.39c0,8.8,6,17,14.64,18.48A17.71,17.71,0,0,0,203,167.72v-2.47a16.92,16.92,0,0,1,6.76-13.84C216.49,146.62,220.69,139.91,220.69,132.41Z"/><path class="cls-5" d="M291.31,388.41c0-14.63-15.81-26.48-35.31-26.48s-35.31,11.86-35.31,26.48c0,7.5,4.2,14.2,10.89,19a16.93,16.93,0,0,1,6.76,13.84v1.39c0,8.8,6,17,14.64,18.48a17.71,17.71,0,0,0,20.68-17.4v-2.47a16.92,16.92,0,0,1,6.76-13.84C287.11,402.62,291.31,395.91,291.31,388.41Z"/><path class="cls-6" d="M117,282.48a39.72,39.72,0,1,1,31.24-64.05,8.83,8.83,0,0,1,0,10.86,23.23,23.23,0,0,0-2.57,4.09,8.83,8.83,0,0,1-15.86-7.75c.09-.18.18-.36.27-.55A21.73,21.73,0,0,0,117,220.69a22.07,22.07,0,0,0,0,44.14A21.64,21.64,0,0,0,130,260.42c-.1-.2-.2-.38-.28-.57a8.83,8.83,0,1,1,15.87-7.73,23.48,23.48,0,0,0,2.59,4.13,8.83,8.83,0,0,1,0,10.85A39.46,39.46,0,0,1,117,282.48Z"/><path class="cls-6" d="M295.72,317.79a39.43,39.43,0,0,1-31.23-15.39,8.81,8.81,0,0,1,0-10.85,23.26,23.26,0,0,0,2.58-4.11,8.82,8.82,0,1,1,15.86,7.75l-.27.55a21.65,21.65,0,0,0,13.07,4.39,22.07,22.07,0,1,0,0-44.14,21.55,21.55,0,0,0-13.06,4.41c.1.18.18.38.28.56a8.82,8.82,0,1,1-15.86,7.75,23.65,23.65,0,0,0-2.59-4.13,8.84,8.84,0,0,1,0-10.86,39.67,39.67,0,1,1,31.22,64.06Z"/><path class="cls-7" d="M141.24,397.24c-23.54-24.37-23.54-63.9,0-88.28C164.79,333.34,164.79,372.87,141.24,397.24Z"/><path class="cls-7" d="M327.25,150.7c-33.88-.59-61.83-28.54-62.42-62.42C298.71,88.87,326.66,116.82,327.25,150.7Z"/><path class="cls-8" d="M388.41,256c-23.54-24.37-23.54-63.9,0-88.28C412,192.1,412,231.63,388.41,256Z"/><path class="cls-3" d="M274.65,218.7a8.73,8.73,0,0,1-3.2-.61,8.83,8.83,0,0,1-5-11.43L276,182.17a8.83,8.83,0,0,1,16.45,6.41l-9.56,24.49A8.83,8.83,0,0,1,274.65,218.7Z"/><path class="cls-9" d="M211.86,247.17a8.73,8.73,0,0,1-3.21-.61l-21.25-8.29a8.83,8.83,0,1,1,6.42-16.45l21.25,8.29a8.83,8.83,0,0,1-3.21,17.05Z"/><path class="cls-9" d="M225.64,344.29a8.73,8.73,0,0,1-3.2-.61,8.83,8.83,0,0,1-5-11.43l10.5-26.89a8.83,8.83,0,1,1,16.45,6.42l-10.5,26.89A8.84,8.84,0,0,1,225.64,344.29Z"/></svg>