<svg id="Layer_1" data-name="Layer 1" xmlns="http://www.w3.org/2000/svg" viewBox="0 0 512 512"><defs><style>.cls-1{fill:#c6e2e7;}.cls-2{fill:#a8d3d8;}.cls-3{fill:#979fef;}.cls-4{fill:#ff6c6c;}.cls-5{fill:#ff4949;}.cls-6{fill:#7984eb;}</style></defs><title>placeholder</title><path class="cls-1" d="M512,452a60.18,60.18,0,0,1-60,60H105V482H452a30,30,0,0,0,0-60H332a60,60,0,0,1,0-120h60v30H332a30,30,0,0,0,0,60H452A60.18,60.18,0,0,1,512,452Z"/><path class="cls-2" d="M512,452a60.18,60.18,0,0,1-60,60H392V482h60a30,30,0,0,0,0-60H392V392h60A60.18,60.18,0,0,1,512,452Z"/><path class="cls-3" d="M105,242A105.12,105.12,0,0,0,0,347a104,104,0,0,0,21,63l84,102,84-102c13.8-18.3,22-40.2,22-63C211,289.1,162.9,242,105,242Zm0,150a45,45,0,1,1,45-45A44.94,44.94,0,0,1,105,392Z"/><path class="cls-4" d="M392,0C325.7,0,272,54.7,272,121a119.66,119.66,0,0,0,21.9,69.3L392,332l97.5-141.1A119.15,119.15,0,0,0,512,121C512,54.7,458.3,0,392,0Zm0,181a60.18,60.18,0,0,1-60-60c0-33,27-61,60-61s60,28,60,61A60.18,60.18,0,0,1,392,181Z"/><path class="cls-5" d="M512,121a119.15,119.15,0,0,1-22.5,69.9L392,332V181a60.18,60.18,0,0,0,60-60c0-33-27-61-60-61V0C458.3,0,512,54.7,512,121Z"/><path class="cls-6" d="M211,347c0,22.8-8.2,44.7-22,63L105,512V392a45,45,0,0,0,0-90V242C162.9,242,211,289.1,211,347Z"/></svg>