<svg id="Capa_1" data-name="Capa 1" xmlns="http://www.w3.org/2000/svg" viewBox="0 0 512 512"><defs><style>.cls-1{fill:#494b50;}</style></defs><title>user</title><g id="User"><path class="cls-1" d="M256,352c79.41,0,144-79,144-176S335.39,0,256,0c-39.15,0-75.74,18.78-103,52.88-26.45,33-41,76.78-41,123.14C112,273,176.59,352,256,352Zm0-320c61.74,0,112,64.59,112,144S317.74,320,256,320,144,255.41,144,176,194.24,32,256,32ZM368,320a16,16,0,0,0,0,32A112.14,112.14,0,0,1,480,464a16,16,0,0,1-16,16H48a16,16,0,0,1-16-16A112.14,112.14,0,0,1,144,352a16,16,0,0,0,0-32C64.59,320,0,384.59,0,464a48.06,48.06,0,0,0,48,48H464a48.06,48.06,0,0,0,48-48C512,384.61,447.41,320,368,320Z"/></g></svg>