<svg id="Capa_1" data-name="Capa 1" xmlns="http://www.w3.org/2000/svg" viewBox="0 0 56 58"><defs><style>.cls-1{fill:#f05565}.cls-2{fill:#efebde}.cls-3{fill:#d5d0bb}.cls-4{fill:#36495e}.cls-5{fill:#7f6e5d}.cls-6{fill:#3d324c}</style></defs><title>calendar</title><path class="cls-1" d="M46 4v4h-7V4H15v4H8V4H0v11h54V4h-8z"/><path class="cls-2" d="M8 15H0v43h54V15H8z"/><path class="cls-3" d="M38 22H9v29h38V22zm-9 2h7v7h-7zm7 16h-7v-7h7zm-16-7h7v7h-7zm0-9h7v7h-7zm-9 0h7v7h-7zm0 9h7v7h-7zm7 16h-7v-7h7zm9 0h-7v-7h7zm9 0h-7v-7h7zm9 0h-7v-7h7zm0-9h-7v-7h7zm-7-9v-7h7v7z" transform="translate(-1)"/><path class="cls-4" d="M8 0h7v8H8zm31 0h7v8h-7z"/><path class="cls-5" d="M19 33h7v7h-7z"/><path class="cls-6" d="M56.71 55.29l-6.8-6.8 6.48-3.24-17.64-6.5 6.5 17.64 3.24-6.48 6.8 6.8a1 1 0 1 0 1.41-1.41z" transform="translate(-1)"/></svg>