<svg id="Capa_1" data-name="Capa 1" xmlns="http://www.w3.org/2000/svg" viewBox="0 0 512 354.96"><defs><style>.cls-1{fill:#fff}</style></defs><title>delivery</title><path class="cls-1" d="M386.69 304.4a64.54 64.54 0 1 0 64.54 64.54 64.61 64.61 0 0 0-64.54-64.54zm0 96.81A32.27 32.27 0 1 1 419 368.94a32.3 32.3 0 0 1-32.31 32.27zM166.18 304.4a64.54 64.54 0 1 0 64.54 64.54 64.61 64.61 0 0 0-64.54-64.54zm0 96.81a32.27 32.27 0 1 1 32.27-32.27 32.3 32.3 0 0 1-32.27 32.27zm263.97-281.53a16.14 16.14 0 0 0-14.42-8.89h-85v32.27h75l43.93 87.38 28.84-14.5z" transform="translate(0 -78.52)"/><path class="cls-1" d="M216.2 274.82h122.08v32.27H216.2z"/><path class="cls-1" d="M117.78 353.35H61.85a16.13 16.13 0 0 0 0 32.27h55.93a16.13 16.13 0 1 0 0-32.27zm390.83-98.64l-31.74-40.87a16.11 16.11 0 0 0-12.74-6.24H346.89V94.65a16.13 16.13 0 0 0-16.13-16.13H61.85a16.13 16.13 0 0 0 0 32.27h252.77v112.94a16.13 16.13 0 0 0 16.13 16.13h125.48l23.5 30.27v83.21h-44.64a16.13 16.13 0 1 0 0 32.27h60.77A16.13 16.13 0 0 0 512 369.48V264.61a16.16 16.16 0 0 0-3.39-9.9zm-391.9 16.89H42.49a16.13 16.13 0 0 0 0 32.27h74.22a16.13 16.13 0 0 0 0-32.27zm37.11-63.47H16.13a16.13 16.13 0 0 0 0 32.27h137.69a16.13 16.13 0 0 0 0-32.27z" transform="translate(0 -78.52)"/><path class="cls-1" d="M180.17 144.67H42.49a16.13 16.13 0 0 0 0 32.27h137.68a16.13 16.13 0 1 0 0-32.27z" transform="translate(0 -78.52)"/></svg>