<svg id="Capa_1" data-name="Capa 1" xmlns="http://www.w3.org/2000/svg" viewBox="0 0 512 234.67"><defs><style>.cls-1{fill:#2196f3}.cls-2{fill:#fafafa}</style></defs><title>new</title><path class="cls-1" d="M10.67 138.67h490.66A10.67 10.67 0 0 1 512 149.33v213.34a10.67 10.67 0 0 1-10.67 10.67H10.67A10.67 10.67 0 0 1 0 362.67V149.33a10.67 10.67 0 0 1 10.67-10.66z" transform="translate(0 -138.67)"/><path class="cls-2" d="M181.33 309.33a10.67 10.67 0 0 1-8.53-4.27L128 245.33v53.33a10.67 10.67 0 0 1-21.33 0v-85.33a10.67 10.67 0 0 1 19.2-6.4l44.8 59.73v-53.33a10.67 10.67 0 0 1 21.33 0v85.33a10.66 10.66 0 0 1-7.3 10.13 11.12 11.12 0 0 1-3.37.54zm85.34 0H224a10.67 10.67 0 0 1-10.67-10.67v-85.33A10.67 10.67 0 0 1 224 202.67h42.67a10.67 10.67 0 1 1 0 21.33h-32v64h32a10.67 10.67 0 1 1 0 21.33z" transform="translate(0 -138.67)"/><path class="cls-2" d="M266.67 266.67H224a10.67 10.67 0 0 1 0-21.33h42.67a10.67 10.67 0 1 1 0 21.33zm106.66 42.66a10.67 10.67 0 0 1-10.11-7.3L352 268.39 340.78 302a10.67 10.67 0 0 1-20.46-.79L299 215.91a10.67 10.67 0 1 1 20.57-5.64c0 .16.08.32.12.48l12.46 49.79 9.75-29.25a11.09 11.09 0 0 1 20.22 0l9.75 29.25 12.46-49.79a10.67 10.67 0 1 1 20.81 4.68q-.05.24-.12.48l-21.33 85.33a10.67 10.67 0 0 1-9.94 8.08z" transform="translate(0 -138.67)"/></svg>