<svg id="Capa_1" data-name="Capa 1" xmlns="http://www.w3.org/2000/svg" viewBox="0 0 456 512"><defs><style>.cls-1{fill:#7a463d}.cls-2{fill:#e4dad8}.cls-3{fill:#f2edec}.cls-4{fill:#cab5b1}.cls-5{fill:#fa892d}.cls-6{fill:#fbdc40}.cls-7{fill:#f56c6c}.cls-8{fill:#885951}</style></defs><title>pizza1</title><path class="cls-1" d="M364 144a8 8 0 0 1-8-8V56a40 40 0 0 0-40-40h-48a40 40 0 0 0-40 40v80a8 8 0 0 1-16 0V56a56.06 56.06 0 0 1 56-56h48a56.06 56.06 0 0 1 56 56v80a8 8 0 0 1-8 8z" transform="translate(-28)"/><path class="cls-2" d="M476 128H100a8 8 0 0 0-8 8v368a8 8 0 0 0 8 8h376a8 8 0 0 0 8-8V136a8 8 0 0 0-8-8z" transform="translate(-28)"/><path class="cls-3" d="M420 128H36a8 8 0 0 0-8 8v368a8 8 0 0 0 8 8h384a8 8 0 0 0 8-8V136a8 8 0 0 0-8-8z" transform="translate(-28)"/><path class="cls-2" d="M52 504V136a8 8 0 0 1 8-8H36a8 8 0 0 0-8 8v368a8 8 0 0 0 8 8h24a8 8 0 0 1-8-8z" transform="translate(-28)"/><path class="cls-4" d="M228 168a40 40 0 0 0 40-40h-80a40 40 0 0 0 40 40z" transform="translate(-28)"/><path class="cls-5" d="M203.59 224.26a136 136 0 1 0 144.15 144.15 8 8 0 0 0-8-8.41H324l-124 12 12-124v-15.75a8 8 0 0 0-8.41-7.99z" transform="translate(-28)"/><path class="cls-6" d="M212 248a112 112 0 0 0-112 113.6c.84 60.32 50.07 109.55 110.39 110.39A112 112 0 0 0 324 360H220a8 8 0 0 1-8-8z" transform="translate(-28)"/><path class="cls-7" d="M253.37 360a24 24 0 1 0 45.26 0z" transform="translate(-28)"/><circle class="cls-7" cx="184" cy="432" r="24"/><circle class="cls-7" cx="112" cy="368" r="24"/><circle class="cls-7" cx="144" cy="304" r="24"/><path class="cls-5" d="M348.24 336H364a8 8 0 0 0 8-8.45 136 136 0 0 0-127.31-127.29 8 8 0 0 0-8.45 8V224" transform="translate(-28)"/><path class="cls-6" d="M236.24 224v104a8 8 0 0 0 8 8h104a112 112 0 0 0-112-112z" transform="translate(-28)"/><path class="cls-7" d="M298.87 320a24 24 0 0 0-22.63 16h45.26a24 24 0 0 0-22.63-16z" transform="translate(-28)"/><circle class="cls-7" cx="240.24" cy="272" r="24"/><path class="cls-8" d="M308 170.16V80a56.06 56.06 0 0 0-56-56h-48a56.06 56.06 0 0 0-56 56v90.16a16 16 0 1 0 16 0V80a40 40 0 0 1 40-40h48a40 40 0 0 1 40 40v90.16a16 16 0 1 0 16 0z" transform="translate(-28)"/></svg>