<svg data-name="Capa 1" xmlns="http://www.w3.org/2000/svg" viewBox="0 0 512 487.86"><title>star-stroke</title><path d="M103.44 487.84a9.16 9.16 0 0 1-9-10.71L122.77 312l-120-116.93a9.16 9.16 0 0 1 5.09-15.63l165.79-24.09L247.79 5.11A9.15 9.15 0 0 1 256 0a9.13 9.13 0 0 1 8.21 5.11l74.14 150.24 165.8 24.09a9.16 9.16 0 0 1 5.09 15.63l-120 116.95 28.32 165.12a9.16 9.16 0 0 1-13.3 9.66L256 408.84l-148.3 78a9.24 9.24 0 0 1-4.26 1zM28.86 194.93L139 302.25a9.16 9.16 0 0 1 2.63 8.11l-26.02 151.57 136.13-71.56a9.13 9.13 0 0 1 8.53 0l136.12 71.56-26-151.56a9.17 9.17 0 0 1 2.63-8.11l110.13-107.33L331 172.79a9.16 9.16 0 0 1-6.9-5L256 29.93l-68.07 137.9a9.16 9.16 0 0 1-6.9 5z"/></svg>