<svg id="Capa_1" data-name="Capa 1" xmlns="http://www.w3.org/2000/svg" viewBox="0 0 512 487.86"><title>star-stroke</title><path d="M103.44,499.91a9.16,9.16,0,0,1-9-10.71l28.33-165.13L2.77,207.14a9.16,9.16,0,0,1,5.09-15.63l165.79-24.09L247.79,17.18A9.15,9.15,0,0,1,256,12.07h0a9.13,9.13,0,0,1,8.21,5.11l74.14,150.24,165.8,24.09a9.16,9.16,0,0,1,5.09,15.63l-120,116.95,28.32,165.12a9.16,9.16,0,0,1-13.3,9.66L256,420.91l-148.3,78A9.24,9.24,0,0,1,103.44,499.91ZM28.86,207,139,314.32a9.16,9.16,0,0,1,2.63,8.11L115.61,474l136.13-71.56a9.13,9.13,0,0,1,8.53,0L396.39,474l-26-151.56a9.17,9.17,0,0,1,2.63-8.11L483.15,207,331,184.86a9.16,9.16,0,0,1-6.9-5L256,42l-68.07,137.9a9.16,9.16,0,0,1-6.9,5Z" transform="translate(0 -12.07)"/></svg>